<svg version="1.1" xmlns="http://www.w3.org/2000/svg" xmlns:xlink="http://www.w3.org/1999/xlink" width="114.51189" height="81.18625" viewBox="0,0,114.51189,81.18625"><g transform="translate(-175.11149,-139.40688)"><g data-paper-data="{&quot;isPaintingLayer&quot;:true}" fill-rule="evenodd" stroke-miterlimit="10" stroke-dasharray="" stroke-dashoffset="0" style="mix-blend-mode: normal"><g><path d="M196.53327,195.94962c-2.88152,1.71664 -11.58687,-0.15598 -11.58687,-0.15598c0,0 -1.74167,7.05525 -7.00572,4.96486c-3.88371,-1.53845 -2.31142,-4.47407 1.78582,-13.79677c0.64562,-1.41533 2.1445,-1.97512 3.48986,-1.51686c2.98304,1.12759 7.87352,2.50353 8.9537,-0.03481c0.89397,-3.32277 1.64799,-7.02027 2.07241,-9.31371c1.62772,-9.36112 9.25404,-5.80454 18.60388,-4.49285c5.05528,0.67391 4.35096,2.21791 5.32601,8.25855c0.72115,3.36005 1.13985,5.33861 2.00324,7.36458c1.24824,3.05645 -3.45831,4.17374 -6.11519,4.20529c0,0 -3.95597,-0.01701 -6.19072,-0.5701c-2.80811,-0.6592 -5.68619,-1.50575 -6.94915,-2.31503c0,0 -1.63442,5.62749 -4.38727,7.40283z" fill="#ffab19" stroke="#001026" stroke-width="1.2" stroke-linecap="round" stroke-linejoin="round"/><path d="M200.74154,187.78998c0,0 0.59936,-1.82504 1.44477,-3.84872c0.9865,-2.50336 1.69196,-4.90176 5.29578,-4.11275c2.87808,0.84656 6.47061,1.31954 5.3283,6.54975c-1.02493,4.97288 -4.03167,4.06763 -4.03167,4.06763c-4.98531,-0.48655 -8.03717,-2.65591 -8.03717,-2.65591z" fill="#ffffff" stroke="none" stroke-width="1" stroke-linecap="butt" stroke-linejoin="miter"/></g><path d="M244.51213,167.98086c0.29749,-2.14278 1.12275,-9.70049 4.4975,-17.26825l0.19075,-0.36553c0.19075,-0.36553 -0.05041,-0.84703 -0.48233,-0.963c-2.92342,-0.32187 -8.57111,-1.18996 -6.19131,-6.43177c2.24703,-5.09223 19.36405,-3.13582 19.34299,2.46146c-0.2143,2.35033 -1.86635,3.15701 -2.76296,3.56455c-0.4815,0.24116 -0.81342,0.6151 -1.07056,1.05541c-0.49747,1.16298 -1.35965,3.33936 -1.81512,5.2082c-1.20925,4.67629 -1.20002,6.02162 -1.40592,8.51313c-0.2059,2.49151 -0.49251,8.38793 -5.34192,9.03072c-4.14356,0.60078 -5.19223,-2.73693 -4.96112,-4.80492z" fill="#ffab19" stroke="#001026" stroke-width="1.2" stroke-linecap="round" stroke-linejoin="round"/><g><path d="M266.19818,170.04184c1.87763,-2.7793 10.55271,-4.78752 10.55271,-4.78752c0,0 -1.42484,-7.12599 4.22842,-7.47331c4.16924,-0.25968 3.99501,3.06592 4.2525,13.24599c0.01774,1.55553 -1.10066,2.69973 -2.51317,2.85726c-3.17935,0.24839 -8.19062,1.0834 -8.08848,3.84013c0.60435,3.38745 1.49474,7.05449 2.08618,9.31063c2.5088,9.16438 -5.90602,9.18961 -14.92577,11.97962c-4.86179,1.54045 -4.88114,-0.1565 -8.33308,-5.20864c-2.08191,-2.73416 -3.30245,-4.3467 -4.94562,-5.81298c-2.4298,-2.23519 1.35447,-5.24838 3.74558,-6.40708c0,0 3.58747,-1.66735 5.84523,-2.11738c2.8218,-0.59789 5.78661,-1.05598 7.27385,-0.86079c0,0 -0.91457,-5.78823 0.82164,-8.56592z" fill="#ffab19" stroke="#001026" stroke-width="1.2" stroke-linecap="round" stroke-linejoin="round"/><path d="M265.86048,179.21654c0,0 0.23388,1.90665 0.32958,4.09773c0.17204,2.68522 0.55379,5.1559 -3.04336,5.97478c-2.96482,0.45809 -6.41733,1.55818 -7.60827,-3.66117c-1.18773,-4.93653 1.9185,-5.39623 1.9185,-5.39623c4.71877,-1.68025 8.40355,-1.01511 8.40355,-1.01511z" fill="#ffffff" stroke="none" stroke-width="1" stroke-linecap="butt" stroke-linejoin="miter"/></g><path d="M255.5273,197.245c2.89652,-4.00127 6.70774,-1.56723 9.31783,-0.47753c3.65412,1.52558 5.84481,3.43631 6.95474,2.98019c3.79228,-1.5584 7.28684,-5.15674 10.88777,-5.33914c2.33896,-0.09626 6.43896,9.35467 6.33375,11.99265c-0.15463,3.30698 -7.01571,6.3427 -9.68016,-2.50889c0,0 -6.5317,6.46814 -10.38223,5.78008c-5.58004,-0.95037 -8.76027,-3.42748 -9.74982,-3.99387c-2.78366,-1.77517 -6.13747,-4.93776 -3.68189,-8.43349z" data-paper-data="{&quot;index&quot;:null}" fill="#ffab19" stroke="#001026" stroke-width="1.2" stroke-linecap="round" stroke-linejoin="round"/><path d="M219.84067,166.28007c-4.0804,2.78394 -6.84214,-0.79695 -8.92898,-2.70616c-2.92158,-2.6729 -4.33575,-5.21261 -5.53457,-5.15932c-4.09596,0.18207 -8.6026,2.38436 -12.05254,1.33653c-2.23336,-0.70152 -2.89055,-10.98247 -1.89821,-13.42895c1.2654,-3.05921 8.74912,-3.59206 8.25855,5.63883c0,0 8.33619,-3.874 11.72619,-1.92262c4.92848,2.78389 7.08193,6.19162 7.82121,7.05965c2.01802,2.61296 4.10266,6.72445 0.60834,9.18204z" data-paper-data="{&quot;index&quot;:null}" fill="#ffab19" stroke="#001026" stroke-width="1.2" stroke-linecap="round" stroke-linejoin="round"/><path d="M211.87796,193.02648c-1.70318,1.42449 -8.70924,6.06293 -8.5331,8.78671c0.20761,2.5859 5.6253,7.44889 1.68917,10.39455c-3.85145,2.89246 -7.39435,-2.55804 -8.99725,-7.92839c-2.11546,-6.93793 5.24195,-15.3402 12.95847,-15.46474c2.74551,0.0464 4.67057,2.73418 2.88272,4.21188z" fill="#ffab19" stroke="#001026" stroke-width="1.2" stroke-linecap="round" stroke-linejoin="round"/><path d="M243.48594,199.73905c0.3,2.2 0.5,10.6 2.9,11.9c2.3,1.2 9.3,-0.8 9.7,4.1c0.4,4.8 -6.1,4.9 -11.5,3.4c-7,-1.9 -10.2,-12.6 -6.2,-19.2c1.5,-2.3 4.8,-2.5 5.1,-0.2z" fill="#ffab19" stroke="#001026" stroke-width="1.2" stroke-linecap="round" stroke-linejoin="round"/><path d="M246.7434,153.42738c0.3,-0.2 0.8,-0.1 0.9,0.3l2.6,10.7c0,0 6.4,4.7 8.3,8c3.2,5.5 3.3,10 3.3,10c0,0 7.1,2.1 8.3,7.8c1.2,5.7 -3.2,16.5 -22,20.2c-18.8,3.7 -33.9,-1.4 -41,-12.8c-7.1,-11.4 4.1,-25 3.5,-24.2l-2.1,-17.9c-0.1,-0.4 0.4,-0.7 0.8,-0.5l12.1,7.9c0,0 4.5,-1.7 9.2,-1.9c2.8,-0.2 5.2,0 7.5,0.4z" fill="#ffab19" stroke="#001026" stroke-width="1.2" stroke-linecap="butt" stroke-linejoin="miter"/><path d="M261.5434,182.82738c0,0 6.9,1.8 8.1,7.5c1.2,5.7 -3.6,16 -22.2,19.6c-24.2,5 -35.7,-9.4 -29,-20c6.7,-10.7 18.2,-1.6 26.6,-2.2c7.2,-0.5 8,-6.8 16.5,-4.9z" fill="#ffffff" stroke="none" stroke-width="1" stroke-linecap="butt" stroke-linejoin="miter"/><path d="M230.0434,193.52738c0,-0.4 0.4,-0.7 0.8,-0.6c1.9,0.7 7.3,2.3 13.3,2.7c5.4,0.3 8.6,0 10.1,-0.3c0.5,-0.1 0.9,0.4 0.7,0.9c-0.9,2.7 -4.7,10.2 -15.2,9.6c-9.1,-1 -10,-7.4 -9.7,-12.3z" fill="#ffffff" stroke="#001026" stroke-width="1.2" stroke-linecap="round" stroke-linejoin="round"/><path d="M279.9434,183.92738c-4.7,3.8 -11.9,3.9 -11.9,3.9" fill="none" stroke="#001026" stroke-width="1.2" stroke-linecap="round" stroke-linejoin="round"/><path d="M278.64338,195.12738c-6.3,0.5 -10.2,-1.4 -10.2,-1.4" fill="none" stroke="#001026" stroke-width="1.2" stroke-linecap="round" stroke-linejoin="round"/><path d="M244.6434,185.12738c2.1,0 4.3,0.2 4.4,0.9c0.1,1.4 -1.4,4.2 -3,4.3c-1.8,0.2 -6,-2.3 -6,-3.9c-0.1,-1.2 2.6,-1.3 4.6,-1.3z" fill="#001026" stroke="#001026" stroke-width="1.2" stroke-linecap="round" stroke-linejoin="round"/><path d="M199.6434,183.62738c0,0 8.6,2.8 12.1,5.9" fill="none" stroke="#001026" stroke-width="1.2" stroke-linecap="round" stroke-linejoin="round"/><path d="M212.0434,193.02738c-4.3,1.7 -11.7,0.6 -11.7,0.6" fill="none" stroke="#001026" stroke-width="1.2" stroke-linecap="round" stroke-linejoin="round"/><g><path d="M256.4434,173.42738c2.9,4.5 3,9.6 0.2,11.4c-2.8,1.8 -7.4,-0.3 -10.4,-4.8c-2.9,-4.5 -3,-9.6 -0.2,-11.4c2.8,-1.9 7.5,0.3 10.4,4.8z" fill="#ffffff" stroke="#001026" stroke-width="1.2" stroke-linecap="round" stroke-linejoin="round"/><path d="M256.0434,179.12738c0,1.1 -0.8,2 -1.8,2c-1,0 -1.8,-0.9 -1.8,-2c0,-1.1 0.8,-2 1.8,-2c1,0 1.8,0.9 1.8,2" fill="#001026" stroke="none" stroke-width="1" stroke-linecap="butt" stroke-linejoin="miter"/></g><g><path d="M231.6434,176.22738c3,4.4 2.8,9.8 0.1,11.7c-3.3,1.9 -7.7,0.5 -10.7,-3.9c-3.1,-4.4 -3.3,-10.1 -0.2,-12.3c3.1,-2.3 7.8,0.1 10.8,4.5z" fill="#ffffff" stroke="#001026" stroke-width="1.2" stroke-linecap="round" stroke-linejoin="round"/><path d="M231.0434,182.02738c0,1.1 -0.8,2 -1.8,2c-1,0 -1.8,-0.9 -1.8,-2c0,-1.1 0.8,-2 1.8,-2c1,0.1 1.8,0.9 1.8,2" fill="#001026" stroke="none" stroke-width="1" stroke-linecap="butt" stroke-linejoin="miter"/></g><path d="M211.73379,175.69373c-2.30995,0.71 -6.14566,-1.60026 -7.26222,-1.54279c-0.31034,0.06075 -2.76149,4.98741 -4.24945,7.921c-2.05116,4.17166 -8.62868,2.01148 -8.43625,-2.60186c0.25318,-4.30301 5.18406,-12.03519 6.66546,-13.35634c3.32437,-3.09977 12.74271,0.94809 19.05168,3.52551" fill="#ffab19" stroke="#001026" stroke-width="1.2" stroke-linecap="round" stroke-linejoin="round"/><path d="M215.67621,198.03628c2.08292,1.22532 2.96693,5.61493 3.76291,6.40004c0.25428,0.188 5.54397,-1.32834 8.71291,-2.21028c4.46262,-1.30193 7.30784,5.00953 3.77378,7.98113c-3.34607,2.71732 -12.37954,4.29734 -14.35423,4.09587c-4.53097,-0.36099 -7.90059,-10.04273 -10.25668,-16.43765" fill="#ffab19" stroke="#001026" stroke-width="1.2" stroke-linecap="round" stroke-linejoin="round"/><path d="M258.03583,174.02403c0.37007,-2.3881 4.12349,-4.82979 4.5594,-5.85934c0.08087,-0.30571 -3.28069,-4.66229 -5.26994,-7.28201c-2.85706,-3.66705 1.95873,-8.6408 6.02487,-6.45299c3.76042,2.10694 8.56291,9.9195 9.10448,11.82914c1.0097,3.2814 -3.16745,7.90963 -7.45843,11.93869c-1.38994,1.3051 -2.79183,2.54734 -4.03324,3.66056" fill="#ffab19" stroke="none" stroke-width="0" stroke-linecap="round" stroke-linejoin="round"/><path d="M258.03583,174.02403c0.37007,-2.3881 4.12349,-4.82979 4.5594,-5.85934c0.08087,-0.30571 -3.28069,-4.66229 -5.26994,-7.28201c-2.85706,-3.66705 1.95873,-8.6408 6.02487,-6.45299c3.76042,2.10694 8.56291,9.9195 9.10448,11.82914" fill="none" stroke="#001026" stroke-width="1.2" stroke-linecap="round" stroke-linejoin="round"/><path d="M265.16321,178.04035c-1.44435,1.36253 -2.90909,2.65991 -4.20024,3.81774" fill="none" stroke="#001026" stroke-width="1.2" stroke-linecap="round" stroke-linejoin="round"/><path d="M265.28511,177.89228c-0.17934,-1.63471 -0.44979,-5.67005 0.91306,-7.85043l0.00001,-0.00001c1.87763,-2.7793 10.55271,-4.78752 10.55271,-4.78752c0,0 -1.42484,-7.12599 4.22842,-7.47331c4.16924,-0.25968 3.99501,3.06592 4.2525,13.24599c0.01774,1.55553 -1.10066,2.69973 -2.51317,2.85726c-2.03362,0.15888 -4.81675,0.55776 -6.53181,1.54604" fill="none" stroke="#001026" stroke-width="1.2" stroke-linecap="round" stroke-linejoin="round"/><path d="M233.20826,164.30524c-1.66769,-1.74895 -1.31567,-6.21281 -1.86619,-7.18591c-0.19307,-0.25045 -5.69579,-0.24083 -8.98511,-0.26052c-4.64856,0.02993 -5.6564,-6.81947 -1.44361,-8.70953c3.96235,-1.697 13.08314,-0.74251 14.92715,-0.00792c4.25885,1.58813 4.84799,11.82255 5.36255,18.61823" fill="#ffab19" stroke="#001026" stroke-width="1.2" stroke-linecap="round" stroke-linejoin="round"/></g></g></svg>